<svg width="64px" height="64px" viewBox="-2.4 -2.4 28.80 28.80" fill="none" xmlns="http://www.w3.org/2000/svg" stroke="#e0d1d1" transform="matrix(1, 0, 0, 1, 0, 0)"><g id="SVGRepo_bgCarrier" stroke-width="0"><rect x="-2.4" y="-2.4" width="28.80" height="28.80" rx="14.4" fill="#af86b1" strokewidth="0"></rect></g><g id="SVGRepo_tracerCarrier" stroke-linecap="round" stroke-linejoin="round"></g><g id="SVGRepo_iconCarrier"> <path d="M3 10C3 9.06812 3 8.60218 3.15224 8.23463C3.35523 7.74458 3.74458 7.35523 4.23463 7.15224C4.60218 7 5.06812 7 6 7V7H18V7C18.9319 7 19.3978 7 19.7654 7.15224C20.2554 7.35523 20.6448 7.74458 20.8478 8.23463C21 8.60218 21 9.06812 21 10V17C21 18.8856 21 19.8284 20.4142 20.4142C19.8284 21 18.8856 21 17 21H16H8H7C5.11438 21 4.17157 21 3.58579 20.4142C3 19.8284 3 18.8856 3 17V10Z" stroke="<svg width=" 64px"="" height="64px" viewBox="-2.4 -2.4 28.80 28.80" fill="none" xmlns="http://www.w3.org/2000/svg" transform="matrix(1, 0, 0, 1, 0, 0)"><g id="SVGRepo_bgCarrier" stroke-width="0"><rect x="-2.4" y="-2.4" width="28.80" height="28.80" rx="14.4" fill="#af86b1" strokewidth="0"></rect></g><g id="SVGRepo_tracerCarrier" stroke-linecap="round" stroke-linejoin="round"></g><g id="SVGRepo_iconCarrier"> <path d="M3 10C3 9.06812 3 8.60218 3.15224 8.23463C3.35523 7.74458 3.74458 7.35523 4.23463 7.15224C4.60218 7 5.06812 7 6 7V7H18V7C18.9319 7 19.3978 7 19.7654 7.15224C20.2554 7.35523 20.6448 7.74458 20.8478 8.23463C21 8.60218 21 9.06812 21 10V17C21 18.8856 21 19.8284 20.4142 20.4142C19.8284 21 18.8856 21 17 21H16H8H7C5.11438 21 4.17157 21 3.58579 20.4142C3 19.8284 3 18.8856 3 17V10Z" stroke="#bfb5b5" stroke-width="2" stroke-linejoin="round"></path> <path d="M8 7V5C8 3.89543 8.89543 3 10 3H14C15.1046 3 16 3.89543 16 5V7" stroke="#bfb5b5" stroke-width="2" stroke-linejoin="round"></path> <path d="M3 10C3.18614 11.3166 3.73499 12.5338 4.55558 13.5714C6.19462 15.644 8.91777 17 12 17C15.0822 17 17.8054 15.644 19.4444 13.5714C20.265 12.5338 20.8139 11.3166 21 10" stroke="#bfb5b5" stroke-width="2" stroke-linecap="round"></path> <path d="M11.5 13H12.5" stroke="#bfb5b5" stroke-width="2" stroke-linecap="round" stroke-linejoin="round"></path> </g>" stroke-width="2" stroke-linejoin="round"&gt;</path> <path d="M8 7V5C8 3.89543 8.89543 3 10 3H14C15.1046 3 16 3.89543 16 5V7" stroke="<svg width=" 64px"="" height="64px" viewBox="-2.4 -2.4 28.80 28.80" fill="none" xmlns="http://www.w3.org/2000/svg" transform="matrix(1, 0, 0, 1, 0, 0)"><g id="SVGRepo_bgCarrier" stroke-width="0"><rect x="-2.4" y="-2.4" width="28.80" height="28.80" rx="14.4" fill="#af86b1" strokewidth="0"></rect></g><g id="SVGRepo_tracerCarrier" stroke-linecap="round" stroke-linejoin="round"></g><g id="SVGRepo_iconCarrier"> <path d="M3 10C3 9.06812 3 8.60218 3.15224 8.23463C3.35523 7.74458 3.74458 7.35523 4.23463 7.15224C4.60218 7 5.06812 7 6 7V7H18V7C18.9319 7 19.3978 7 19.7654 7.15224C20.2554 7.35523 20.6448 7.74458 20.8478 8.23463C21 8.60218 21 9.06812 21 10V17C21 18.8856 21 19.8284 20.4142 20.4142C19.8284 21 18.8856 21 17 21H16H8H7C5.11438 21 4.17157 21 3.58579 20.4142C3 19.8284 3 18.8856 3 17V10Z" stroke="#bfb5b5" stroke-width="2" stroke-linejoin="round"></path> <path d="M8 7V5C8 3.89543 8.89543 3 10 3H14C15.1046 3 16 3.89543 16 5V7" stroke="#bfb5b5" stroke-width="2" stroke-linejoin="round"></path> <path d="M3 10C3.18614 11.3166 3.73499 12.5338 4.55558 13.5714C6.19462 15.644 8.91777 17 12 17C15.0822 17 17.8054 15.644 19.4444 13.5714C20.265 12.5338 20.8139 11.3166 21 10" stroke="#bfb5b5" stroke-width="2" stroke-linecap="round"></path> <path d="M11.5 13H12.5" stroke="#bfb5b5" stroke-width="2" stroke-linecap="round" stroke-linejoin="round"></path> </g>" stroke-width="2" stroke-linejoin="round"&gt;</path> <path d="M3 10C3.18614 11.3166 3.73499 12.5338 4.55558 13.5714C6.19462 15.644 8.91777 17 12 17C15.0822 17 17.8054 15.644 19.4444 13.5714C20.265 12.5338 20.8139 11.3166 21 10" stroke="<svg width=" 64px"="" height="64px" viewBox="-2.4 -2.4 28.80 28.80" fill="none" xmlns="http://www.w3.org/2000/svg" transform="matrix(1, 0, 0, 1, 0, 0)"><g id="SVGRepo_bgCarrier" stroke-width="0"><rect x="-2.4" y="-2.4" width="28.80" height="28.80" rx="14.4" fill="#af86b1" strokewidth="0"></rect></g><g id="SVGRepo_tracerCarrier" stroke-linecap="round" stroke-linejoin="round"></g><g id="SVGRepo_iconCarrier"> <path d="M3 10C3 9.06812 3 8.60218 3.15224 8.23463C3.35523 7.74458 3.74458 7.35523 4.23463 7.15224C4.60218 7 5.06812 7 6 7V7H18V7C18.9319 7 19.3978 7 19.7654 7.15224C20.2554 7.35523 20.6448 7.74458 20.8478 8.23463C21 8.60218 21 9.06812 21 10V17C21 18.8856 21 19.8284 20.4142 20.4142C19.8284 21 18.8856 21 17 21H16H8H7C5.11438 21 4.17157 21 3.58579 20.4142C3 19.8284 3 18.8856 3 17V10Z" stroke="#bfb5b5" stroke-width="2" stroke-linejoin="round"></path> <path d="M8 7V5C8 3.89543 8.89543 3 10 3H14C15.1046 3 16 3.89543 16 5V7" stroke="#bfb5b5" stroke-width="2" stroke-linejoin="round"></path> <path d="M3 10C3.18614 11.3166 3.73499 12.5338 4.55558 13.5714C6.19462 15.644 8.91777 17 12 17C15.0822 17 17.8054 15.644 19.4444 13.5714C20.265 12.5338 20.8139 11.3166 21 10" stroke="#bfb5b5" stroke-width="2" stroke-linecap="round"></path> <path d="M11.5 13H12.5" stroke="#bfb5b5" stroke-width="2" stroke-linecap="round" stroke-linejoin="round"></path> </g>" stroke-width="2" stroke-linecap="round"&gt;</path> <path d="M11.5 13H12.5" stroke="<svg width=" 64px"="" height="64px" viewBox="-2.4 -2.4 28.80 28.80" fill="none" xmlns="http://www.w3.org/2000/svg" transform="matrix(1, 0, 0, 1, 0, 0)"><g id="SVGRepo_bgCarrier" stroke-width="0"><rect x="-2.4" y="-2.4" width="28.80" height="28.80" rx="14.4" fill="#af86b1" strokewidth="0"></rect></g><g id="SVGRepo_tracerCarrier" stroke-linecap="round" stroke-linejoin="round"></g><g id="SVGRepo_iconCarrier"> <path d="M3 10C3 9.06812 3 8.60218 3.15224 8.23463C3.35523 7.74458 3.74458 7.35523 4.23463 7.15224C4.60218 7 5.06812 7 6 7V7H18V7C18.9319 7 19.3978 7 19.7654 7.15224C20.2554 7.35523 20.6448 7.74458 20.8478 8.23463C21 8.60218 21 9.06812 21 10V17C21 18.8856 21 19.8284 20.4142 20.4142C19.8284 21 18.8856 21 17 21H16H8H7C5.11438 21 4.17157 21 3.58579 20.4142C3 19.8284 3 18.8856 3 17V10Z" stroke="#bfb5b5" stroke-width="2" stroke-linejoin="round"></path> <path d="M8 7V5C8 3.89543 8.89543 3 10 3H14C15.1046 3 16 3.89543 16 5V7" stroke="#bfb5b5" stroke-width="2" stroke-linejoin="round"></path> <path d="M3 10C3.18614 11.3166 3.73499 12.5338 4.55558 13.5714C6.19462 15.644 8.91777 17 12 17C15.0822 17 17.8054 15.644 19.4444 13.5714C20.265 12.5338 20.8139 11.3166 21 10" stroke="#bfb5b5" stroke-width="2" stroke-linecap="round"></path> <path d="M11.5 13H12.5" stroke="#bfb5b5" stroke-width="2" stroke-linecap="round" stroke-linejoin="round"></path> </g>" stroke-width="2" stroke-linecap="round" stroke-linejoin="round"&gt;</path> </g></svg>